PathFileType	4	(X/Y/Z)	c:/Users/goper/Files/vsCode/490R/osim_files/C12/C12_Slow_05.trc
DataRate	CameraRate	NumFrames	NumMarkers	Units                	OrigDataRate	OrigDataStartFrame	OrigNumFrames
120.00	120.00	4	36	mm	120.0	896	1432
                Frame#	Time	LPSIS			LASIS			LTH1			LTH2			LTH3			LTH4			LLFE			LMFE			LSH1			LSH2			LSH3			LSH4			LLMAL			LMMAL			LCAL			LMTP5			LTOE			LMTP1			RPSIS			RASIS			RTH1			RTH2			RTH3			RTH4			RLFE			RMFE			RSH1			RSH2			RSH3			RSH4			RLMAL			RMMAL			RCAL			RMTP1			RTOE			RMTP5		
		X1	Y1	Z1	X2	Y2	Z2	X3	Y3	Z3	X4	Y4	Z4	X5	Y5	Z5	X6	Y6	Z6	X7	Y7	Z7	X8	Y8	Z8	X9	Y9	Z9	X10	Y10	Z10	X11	Y11	Z11	X12	Y12	Z12	X13	Y13	Z13	X14	Y14	Z14	X15	Y15	Z15	X16	Y16	Z16	X17	Y17	Z17	X18	Y18	Z18	X19	Y19	Z19	X20	Y20	Z20	X21	Y21	Z21	X22	Y22	Z22	X23	Y23	Z23	X24	Y24	Z24	X25	Y25	Z25	X26	Y26	Z26	X27	Y27	Z27	X28	Y28	Z28	X29	Y29	Z29	X30	Y30	Z30	X31	Y31	Z31	X32	Y32	Z32	X33	Y33	Z33	X34	Y34	Z34	X35	Y35	Z35	X36	Y36	Z36

896	7.45833	-1768.28735	1066.78625	342.21918	-1944.71033	1026.69666	394.17770	-1919.79468	740.49908	455.43036	-1938.70715	700.40125	453.43674	-1977.96277	763.02551	461.46039	-1989.75500	719.95013	458.20154	-2039.42432	549.03931	415.14828	-2041.96960	540.10333	287.82602	-2009.06995	447.91257	436.10989	-2023.18945	403.40640	445.12018	-2068.84619	460.43027	431.13855	-2072.94531	414.96289	439.83658	-2125.09253	118.96994	416.17136	-2136.22437	127.19470	336.80716	-2075.90845	74.46230	377.89978	-2270.01611	100.25925	440.19080	-2306.79150	147.70354	372.16391	-2290.43921	106.96751	333.17267	-1758.36877	1070.54736	229.49738	-1937.53174	1031.58594	138.33154	-1786.82886	759.37170	99.27106	-1783.43701	714.70508	109.12936	-1849.31360	746.51288	100.61559	-1835.81824	701.34601	108.69254	-1748.40662	539.17865	153.31078	-1756.81738	541.23505	285.47147	-1668.08606	454.41101	138.02385	-1662.31116	411.23120	133.46523	-1728.90540	437.14175	144.15511	-1712.74463	397.79031	136.72696	-1621.93396	124.07116	189.91145	-1641.93726	134.84435	270.57620	-1545.77039	97.19178	229.74687	-1752.33521	46.84737	269.91672	-1797.52612	60.82151	237.13467	-1759.40552	37.54982	163.53717
897	7.46667	-1778.30847	1064.26367	343.44937	-1954.88269	1024.05688	394.77432	-1927.10474	736.67883	455.22824	-1945.61951	696.49207	452.87869	-1985.57397	758.63690	461.03979	-1996.94250	715.42517	457.51901	-2047.95300	546.10657	414.31335	-2048.73560	536.53864	286.51193	-2022.22107	443.26465	434.89703	-2036.79663	400.67758	444.11145	-2080.16870	459.58832	429.81589	-2086.66504	414.05569	438.61917	-2151.69800	120.63342	415.37860	-2162.09692	129.31773	335.83807	-2104.39966	73.51388	377.69583	-2297.75903	108.47936	438.25510	-2331.76904	158.04254	370.21423	-2317.06909	116.39867	331.58435	-1767.98816	1068.83228	230.63376	-1946.16077	1029.44812	138.86421	-1792.73364	759.17834	99.92568	-1788.20435	714.82245	109.46089	-1855.02527	745.16199	100.29063	-1841.06079	700.68805	109.11005	-1752.28479	539.29614	153.38869	-1761.15234	540.91669	285.61203	-1671.13782	455.03394	138.32497	-1665.08618	411.84848	133.73177	-1731.82141	437.24692	144.26497	-1715.39990	398.09064	136.73640	-1622.52686	124.92513	190.05267	-1642.75244	135.50015	270.74957	-1546.21387	98.39394	229.88338	-1752.45447	46.87448	269.94006	-1797.71851	60.72308	237.11566	-1759.41479	37.47889	163.54535
898	7.47500	-1788.17212	1061.70044	344.58600	-1965.24255	1021.37488	395.40060	-1934.55225	732.91992	455.04153	-1952.67615	692.65570	452.44983	-1993.38965	754.28278	460.75406	-2004.41882	710.97083	457.06494	-2057.03540	543.49408	414.18616	-2055.66382	533.14624	285.65909	-2035.33325	439.35541	432.88739	-2051.59888	397.18283	442.54013	-2091.80420	458.55463	428.81061	-2100.33179	413.18628	437.64679	-2177.14893	122.77955	414.09219	-2187.11182	131.83469	334.54715	-2131.53149	73.24967	377.03085	-2323.56177	116.98241	436.49261	-2355.24634	168.02718	368.35931	-2342.12476	125.68176	329.79480	-1777.92444	1067.07239	231.89763	-1955.55933	1027.50671	139.47118	-1798.82239	759.00958	100.58765	-1793.84021	714.63367	110.14909	-1860.97974	744.77820	101.27628	-1846.55957	699.90179	109.44571	-1756.54517	539.30048	153.43182	-1765.89563	540.47278	285.71082	-1674.66138	455.65408	138.56102	-1668.16516	412.47388	133.93597	-1735.09656	437.38147	144.30646	-1718.31494	398.31461	136.69395	-1623.27612	125.79594	190.08232	-1643.56152	136.08517	270.82895	-1546.77026	99.62384	229.96481	-1752.56799	46.85495	269.94333	-1797.89539	60.59302	237.10229	-1759.42273	37.46715	163.54156
899	7.48333	-1798.21863	1059.06885	345.84482	-1975.56067	1018.72601	396.30005	-1942.71692	730.07819	455.65298	-1960.13062	688.87024	451.99594	-2001.29858	750.22998	460.82684	-2011.72961	706.39246	455.55246	-2066.09180	541.08148	413.78909	-2062.57056	530.01837	285.07416	-2045.91760	437.23209	432.90454	-2065.81177	394.51135	442.06055	-2102.99976	457.43655	428.20023	-2114.10327	411.79373	435.45068	-2200.81055	124.99345	411.91205	-2209.99756	134.95551	332.67194	-2157.08716	73.35273	375.60376	-2346.86035	125.07119	434.14755	-2376.83203	177.85838	366.60938	-2365.79199	134.97969	328.03372	-1787.69434	1065.11206	233.10115	-1964.94788	1025.79736	140.41544	-1805.10034	758.65857	101.24582	-1799.72827	714.29639	110.74021	-1866.35193	744.15698	101.67316	-1852.03162	699.35199	109.92933	-1761.15027	539.34412	153.41869	-1770.53442	540.20819	285.78006	-1678.57849	456.15219	138.75905	-1671.21008	413.55750	133.53993	-1738.89172	437.28537	144.13358	-1721.73328	398.59625	136.71664	-1623.53418	126.98486	189.88835	-1644.23340	136.89537	270.76529	-1547.27881	100.83679	229.94017	-1752.67078	46.83132	269.66269	-1797.73438	60.77104	236.99986	-1759.32739	37.53501	163.54068
